<svg width="23" height="22" viewBox="0 0 23 22" fill="none" xmlns="http://www.w3.org/2000/svg">
<path opacity="0.54" fill-rule="evenodd" clip-rule="evenodd" d="M16.3775 13.8862H15.385L15.04 13.5437C16.2588 12.1225 17 10.28 17 8.26123C17 3.77373 13.3625 0.13623 8.875 0.13623C4.3875 0.13623 0.75 3.77373 0.75 8.26123C0.75 12.7487 4.3875 16.3862 8.875 16.3862C10.8938 16.3862 12.735 15.6462 14.1563 14.4287L14.5013 14.7712V15.7612L20.7488 22L22.6125 20.1362L16.3775 13.8862ZM8.87501 13.8862C5.76751 13.8862 3.25001 11.3687 3.25001 8.26123C3.25001 5.15498 5.76751 2.63623 8.87501 2.63623C11.9813 2.63623 14.5 5.15498 14.5 8.26123C14.5 11.3687 11.9813 13.8862 8.87501 13.8862Z" fill="black"/>
</svg>
